HIERARCHY
ROOT hips
{
  OFFSET 0 10.6860622 2.3727825e-15
  CHANNELS 6 Xposition Yposition Zposition Yrotation Xrotation Zrotation
  JOINT leftUpperLeg
  {
    OFFSET 0.6642549969 -0.9402397400000004 0
    CHANNELS 3 Yrotation Xrotation Zrotation
    JOINT leftLowerLeg
    {
      OFFSET 0 -3.997221335632195 0
      CHANNELS 3 Yrotation Xrotation Zrotation
      JOINT leftFoot
      {
        OFFSET -0.13777839790000004 -4.6145792000000005 -0.22186036399999998
        CHANNELS 3 Yrotation Xrotation Zrotation
        JOINT leftToes
        {
          OFFSET -0.03777410834999995 -0.9130806927000008 0.85230013
          CHANNELS 3 Yrotation Xrotation Zrotation
          End Site
          {
            OFFSET -0.03777410834999995 -0.9130806927000008 0.85230013
          }
        }
      }
    }
  }
  JOINT rightUpperLeg
  {
    OFFSET -0.6642778626 -0.9402397400000004 0
    CHANNELS 3 Yrotation Xrotation Zrotation
    JOINT rightLowerLeg
    {
      OFFSET 0 -3.997221452859387 0
      CHANNELS 3 Yrotation Xrotation Zrotation
      JOINT rightFoot
      {
        OFFSET 0.1377926176 -4.6145792000000005 -0.22185782299999995
        CHANNELS 3 Yrotation Xrotation Zrotation
        JOINT rightToes
        {
          OFFSET 0.037780746850000047 -0.9130806927000008 0.85230167
          CHANNELS 3 Yrotation Xrotation Zrotation
          End Site
          {
            OFFSET 0.037780746850000047 -0.9130806927000008 0.85230167
          }
        }
      }
    }
  }
  JOINT spine
  {
    OFFSET 0 0.13988381660000015 0
    CHANNELS 3 Yrotation Xrotation Zrotation
    JOINT chest
    {
      OFFSET 0 0.6191039003973773 0
      CHANNELS 3 Yrotation Xrotation Zrotation
      JOINT upperChest
      {
        OFFSET 0 0.9855186130586943 0
        CHANNELS 3 Yrotation Xrotation Zrotation
        JOINT leftShoulder
        {
          OFFSET 0.1807663869 1.5087829790000005 0
          CHANNELS 3 Yrotation Xrotation Zrotation
          JOINT leftUpperArm
          {
            OFFSET 0.5985063006419806 0 0
            CHANNELS 3 Yrotation Xrotation Zrotation
            JOINT leftLowerArm
            {
              OFFSET 2.2993332369501065 0 0
              CHANNELS 3 Yrotation Xrotation Zrotation
              JOINT leftHand
              {
                OFFSET 2.395047042602395 0 0
                CHANNELS 3 Yrotation Xrotation Zrotation
                JOINT leftIndexProximal
                {
                  OFFSET 0.5766295810000004 0.04556643899499946 0.17265095988184
                  CHANNELS 3 Yrotation Xrotation Zrotation
                  JOINT leftIndexIntermediate
                  {
                    OFFSET 0.2957229000000008 -0.019352197700001517 -0.007932640616999987
                    CHANNELS 3 Yrotation Xrotation Zrotation
                    JOINT leftIndexDistal
                    {
                      OFFSET 0.19008243099999922 -0.012484908149998475 -0.002786250786000012
                      CHANNELS 3 Yrotation Xrotation Zrotation
                      End Site
                      {
                        OFFSET 0.19008243099999922 -0.012484908149998475 -0.002786250786000012
                      }
                    }
                  }
                }
                JOINT leftMiddleProximal
                {
                  OFFSET 0.5834975091000001 0.0524350405149987 0.02204081888183999
                  CHANNELS 3 Yrotation Xrotation Zrotation
                  JOINT leftMiddleIntermediate
                  {
                    OFFSET 0.33880573540000003 -0.019871473270000717 -0.00000971183179999946
                    CHANNELS 3 Yrotation Xrotation Zrotation
                    JOINT leftMiddleDistal
                    {
                      OFFSET 0.20676022730000088 -0.012221336379999448 0.0001471936708000235
                      CHANNELS 3 Yrotation Xrotation Zrotation
                      End Site
                      {
                        OFFSET 0.20676022730000088 -0.012221336379999448 0.0001471936708000235
                      }
                    }
                  }
                }
                JOINT leftLittleProximal
                {
                  OFFSET 0.5344154683999995 -0.012880921405001189 -0.24414037221816004
                  CHANNELS 3 Yrotation Xrotation Zrotation
                  JOINT leftLittleIntermediate
                  {
                    OFFSET 0.21758961730000093 -0.011650919939999227 0.011893592810000034
                    CHANNELS 3 Yrotation Xrotation Zrotation
                    JOINT leftLittleDistal
                    {
                      OFFSET 0.1475273964999999 -0.008152365682999818 0.006001092492999946
                      CHANNELS 3 Yrotation Xrotation Zrotation
                      End Site
                      {
                        OFFSET 0.1475273964999999 -0.008152365682999818 0.006001092492999946
                      }
                    }
                  }
                }
                JOINT leftRingProximal
                {
                  OFFSET 0.5799399463000003 0.026911854694997794 -0.12150566991816003
                  CHANNELS 3 Yrotation Xrotation Zrotation
                  JOINT leftRingIntermediate
                  {
                    OFFSET 0.26167887460000006 -0.013480186499999602 0.010996293000000053
                    CHANNELS 3 Yrotation Xrotation Zrotation
                    JOINT leftRingDistal
                    {
                      OFFSET 0.17667108799999987 -0.008990287899999228 0.0055541023999999065
                      CHANNELS 3 Yrotation Xrotation Zrotation
                      End Site
                      {
                        OFFSET 0.17667108799999987 -0.008990287899999228 0.0055541023999999065
                      }
                    }
                  }
                }
                JOINT leftThumbProximal
                {
                  OFFSET 0.11018806699999972 -0.09448718900500053 0.17047963138184
                  CHANNELS 3 Yrotation Xrotation Zrotation
                  JOINT leftThumbIntermediate
                  {
                    OFFSET 0.31062601459999983 -0.08126270900000132 0.15443142000000007
                    CHANNELS 3 Yrotation Xrotation Zrotation
                    JOINT leftThumbDistal
                    {
                      OFFSET 0.21627175790000086 -0.08833193599999878 0.018771167799999988
                      CHANNELS 3 Yrotation Xrotation Zrotation
                      End Site
                      {
                        OFFSET 0.21627175790000086 -0.08833193599999878 0.018771167799999988
                      }
                    }
                  }
                }
              }
            }
          }
        }
        JOINT neck
        {
          OFFSET 0 1.5463305265074576 0
          CHANNELS 3 Yrotation Xrotation Zrotation
          JOINT head
          {
            OFFSET 0 0.8456443600000344 0
            CHANNELS 3 Yrotation Xrotation Zrotation
            JOINT leftEye
            {
              OFFSET 0.30408573140000006 0.5104519199999995 0.1276382305
              CHANNELS 3 Yrotation Xrotation Zrotation
              End Site
              {
                OFFSET 0.30408573140000006 0.5104519199999995 0.1276382305
              }
            }
            JOINT rightEye
            {
              OFFSET -0.30409491089999996 0.5104519199999995 0.1276379445
              CHANNELS 3 Yrotation Xrotation Zrotation
              End Site
              {
                OFFSET -0.30409491089999996 0.5104519199999995 0.1276379445
              }
            }
            JOINT jaw
            {
              OFFSET -3.155239131000001e-7 -0.11984121820000082 0.60178107
              CHANNELS 3 Yrotation Xrotation Zrotation
              End Site
              {
                OFFSET -3.155239131000001e-7 -0.11984121820000082 0.60178107
              }
            }
          }
        }
        JOINT rightShoulder
        {
          OFFSET -0.1807303465 1.5087829790000005 0
          CHANNELS 3 Yrotation Xrotation Zrotation
          JOINT rightUpperArm
          {
            OFFSET -0.5985063796536958 0 0
            CHANNELS 3 Yrotation Xrotation Zrotation
            JOINT rightLowerArm
            {
              OFFSET -2.2993322059002854 0 0
              CHANNELS 3 Yrotation Xrotation Zrotation
              JOINT rightHand
              {
                OFFSET -2.395045314457259 0 0
                CHANNELS 3 Yrotation Xrotation Zrotation
                JOINT rightIndexProximal
                {
                  OFFSET -0.5764487688300002 0.0441371204405987 0.17361932004999997
                  CHANNELS 3 Yrotation Xrotation Zrotation
                  JOINT rightIndexIntermediate
                  {
                    OFFSET -0.29573011380000047 -0.01934826376999843 -0.007698921482999974
                    CHANNELS 3 Yrotation Xrotation Zrotation
                    JOINT rightIndexDistal
                    {
                      OFFSET -0.19008373999999884 -0.012503266380000655 -0.0026365778999999897
                      CHANNELS 3 Yrotation Xrotation Zrotation
                      End Site
                      {
                        OFFSET -0.19008373999999884 -0.012503266380000655 -0.0026365778999999897
                      }
                    }
                  }
                }
                JOINT rightMiddleProximal
                {
                  OFFSET -0.5834852037300005 0.05211639405060153 0.02307162440000001
                  CHANNELS 3 Yrotation Xrotation Zrotation
                  JOINT rightMiddleIntermediate
                  {
                    OFFSET -0.33880114510000003 -0.019952774050000954 0.0002455003561999819
                    CHANNELS 3 Yrotation Xrotation Zrotation
                    JOINT rightMiddleDistal
                    {
                      OFFSET -0.20675694929999955 -0.012273788999999091 0.00030209124000002766
                      CHANNELS 3 Yrotation Xrotation Zrotation
                      End Site
                      {
                        OFFSET -0.20675694929999955 -0.012273788999999091 0.00030209124000002766
                      }
                    }
                  }
                }
                JOINT rightLittleProximal
                {
                  OFFSET -0.5346811737299992 -0.011214256288399227 -0.24363941305000003
                  CHANNELS 3 Yrotation Xrotation Zrotation
                  JOINT rightLittleIntermediate
                  {
                    OFFSET -0.21757715980000092 -0.011771559690000988 0.01201554387
                    CHANNELS 3 Yrotation Xrotation Zrotation
                    JOINT rightLittleDistal
                    {
                      OFFSET -0.1475201849000004 -0.00822055339600003 0.006082065407000015
                      CHANNELS 3 Yrotation Xrotation Zrotation
                      End Site
                      {
                        OFFSET -0.1475201849000004 -0.00822055339600003 0.006082065407000015
                      }
                    }
                  }
                }
                JOINT rightRingProximal
                {
                  OFFSET -0.5800810755299999 0.027657985680600072 -0.12066365025000003
                  CHANNELS 3 Yrotation Xrotation Zrotation
                  JOINT rightRingIntermediate
                  {
                    OFFSET -0.26166445029999974 -0.013623118409999302 0.011164098990000045
                    CHANNELS 3 Yrotation Xrotation Zrotation
                    JOINT rightRingDistal
                    {
                      OFFSET -0.17666387530000027 -0.009072900100000503 0.005668185599999959
                      CHANNELS 3 Yrotation Xrotation Zrotation
                      End Site
                      {
                        OFFSET -0.17666387530000027 -0.009072900100000503 0.005668185599999959
                      }
                    }
                  }
                }
                JOINT rightThumbProximal
                {
                  OFFSET -0.10997596379000074 -0.09577489355940072 0.16989765924999997
                  CHANNELS 3 Yrotation Xrotation Zrotation
                  JOINT rightThumbIntermediate
                  {
                    OFFSET -0.31036620999999986 -0.08229339117999834 0.15440884469999996
                    CHANNELS 3 Yrotation Xrotation Zrotation
                    JOINT rightThumbDistal
                    {
                      OFFSET -0.21631306399999906 -0.08825326400000111 0.018656797720000014
                      CHANNELS 3 Yrotation Xrotation Zrotation
                      End Site
                      {
                        OFFSET -0.21631306399999906 -0.08825326400000111 0.018656797720000014
                      }
                    }
                  }
                }
              }
            }
          }
        }
      }
    }
  }
}
MOTION
Frames: 8
Frame Time: 0.03333333333333333
0 11.682712981546562 0 0 0 0 0 0 -5.826343164929014 -0.3712483961610101 -3.6333298826370974 5.838118207697276 0 0 0 0 0 0 0 0 5.826343164929014 0.3712483961610101 -3.6333298826370974 -5.838118207697276 0 0 0 0 0 0 0 -4.610651315171937 0 0 3.0831277533083026 0 0 0 0 0 1.5275236235667615 0 0 0 0 0 0 0 0 0 0 0 0 0 0 0 0 0 0 0 0 0 0 0 0 0 0 0 0 0 0 0 0 0 0 0 0 0 0 0 0 0 0 0 0 0 0 0 0 0 0 0 0 0 0 0 0 1.5275236235667615 0 0 0 0 0 0 0 0 0 0 0 0 0 0 1.5275236235667615 0 0 0 0 0 0 0 0 0 0 0 0 0 0 0 0 0 0 0 0 0 0 0 0 0 0 0 0 0 0 0 0 0 0 0 0 0 0 0 0 0 0 0 0 0 0 0 0 0 0 0 0 0 0 0
0.2200886406700369 -4.9168943422266915 -0.5877066082470553 0 14.99817556871629 0 10.470028467990089 -23.193711544994756 1.6563280252504793 98.01245820887542 84.64851350292659 99.91204862448043 18.08008206286469 59.92740464394639 0.07751789941596123 0 0 0 -10.568805685885788 -23.245307652974585 -1.7260893538003015 -98.26362660134916 84.71020147442208 -100.27176732068732 -18.253456529530762 60.90680991019032 -0.30733137047447423 0 0 0 -0.46731886127613037 15.104623520988142 0.22342560055411964 -2.0526129061200185 -13.101037208304756 -0.2442846020711156 0 0 0 -0.5320882537343031 19.28029382485751 -6.438027644806045 -3.814831868083579 -5.655982819097604 -43.18610092098956 -41.76892755030674 -7.9571598395388685 -50.469137730379074 2.976520741037935 15.43933596904429 50.69356051060677 0 0 0 0 0 0 0 0 0 0 0 0 0 0 0 0 0 0 0 0 0 0 0 0 0 0 0 0 0 0 0 0 0 0 0 0 0 0 0 0 0 0 0 0 0 0 -17.47709077807991 0 0 -0.3269820069752727 0 0 0 0 0 0 0 0 0 0 22.43948977434301 -12.366548804868847 20.029963589134613 5.916204227123944 -8.704321334343723 39.59223354278634 33.864063367939714 -0.33519758106143877 37.52288151784881 -25.554188906727227 -0.8910960521116061 -38.59878529899959 0 0 0 0 0 0 0 0 0 0 0 0 0 0 0 0 0 0 0 0 0 0 0 0 0 0 0 0 0 0 0 0 0 0 0 0 0 0 0 0 0 0 0 0 0
0.2404221733403209 -4.914610055605606 -0.5581915101715261 0 14.554749622109615 0 10.507244965554335 -22.376531474637627 1.5969437176825008 93.90117774453135 84.69540500391489 95.78945097358417 18.258493034475578 59.91688358431507 0.12790130382795173 0 0 0 -10.419119198956837 -22.485613693996513 -2.0086976014659883 -94.2698417016102 84.7573441322115 -96.2690607369221 -17.936459915757194 60.98908516932777 -0.11855321178783189 0 0 0 -0.46784248157730074 15.104388290488105 0.22213437237755046 -2.019173172781771 -11.527343703602542 -0.3258114190416078 0 0 0 -0.6028779168471243 18.653403075803794 -6.241801928758583 -3.815186147460154 -5.679746821113356 -43.0554186476357 -41.76892755030674 -7.9571598395388685 -50.469137730379074 2.4381384765105567 15.372537309611813 50.75876070240102 0 0 0 0 0 0 0 0 0 0 0 0 0 0 0 0 0 0 0 0 0 0 0 0 0 0 0 0 0 0 0 0 0 0 0 0 0 0 0 0 0 0 0 0 0 -0.00178734321508371 -17.49877482183207 -0.013366249907561465 0 -0.4881089913344643 0 0 0 0 0 0 0 0 0 0 21.000868639417803 -12.127346873403992 20.06482494556774 7.236972253528022 -10.113942678876496 40.30488976491321 34.147238569178995 0.3857864334652106 38.399397412037644 -25.9599652744539 -0.8018872917964367 -38.49550683368051 0 0 0 0 0 0 0 0 0 0 0 0 0 0 0 0 0 0 0 0 0 0 0 0 0 0 0 0 0 0 0 0 0 0 0 0 0 0 0 0 0 0 0 0 0
0.26075570601060494 -4.912325768984521 -0.5286764120959969 0 14.111322906623469 0 10.54333671306722 -21.559317256232966 1.538470637189594 89.73837016367621 84.71457432287451 91.61532551941706 18.43682854923665 59.906290938653186 0.17820311599104524 0 0 0 -10.274272310454093 -21.72525262229857 -2.2876499202274942 -90.22365500828421 84.77857859256521 -92.21395232457853 -17.618085510908738 61.07083978292332 0.07165169814883322 0 0 0 -0.46835681561243875 15.10415482889617 0.22084166872011016 -1.9881801377971255 -9.9536062251355 -0.4059821599660496 0 0 0 -0.6756686351621711 18.02674532653006 -6.045471545976394 -3.8155950767073357 -5.703510516414467 -42.92473211438684 -41.76892755030674 -7.9571598395388685 -50.469137730379074 1.8998492904685056 15.30633364509668 50.82458795849342 0 0 0 0 0 0 0 0 0 0 0 0 0 0 0 0 0 0 0 0 0 0 0 0 0 0 0 0 0 0 0 0 0 0 0 0 0 0 0 0 0 0 0 0 0 -0.0035695948904099135 -17.5204614531994 -0.02673338664534452 0 -0.6492360205311569 0 0 0 0 0 0 0 0 0 0 19.563674352971816 -11.887364704385142 20.093505518287923 8.546011270559893 -11.539325882648946 40.98757862823073 34.44145583587678 1.1023448518128254 39.279611504440844 -26.365573036636437 -0.7119495887851428 -38.392865660374255 0 0 0 0 0 0 0 0 0 0 0 0 0 0 0 0 0 0 0 0 0 0 0 0 0 0 0 0 0 0 0 0 0 0 0 0 0 0 0 0 0 0 0 0 0
0.30142277135117296 -4.907756927350077 -0.46964594755266703 0 13.223608909594702 0 10.61249859774533 -19.919335095979843 1.4237265252227715 81.4261484307286 84.66880103850002 83.28045261465782 18.793298479893227 59.88485032303304 0.27856247932955464 0 0 0 -9.99775273162364 -20.1977512806919 -2.8369286846384236 -82.1283620552562 84.74248990072542 -84.10080343913559 -16.977063482929903 61.232856711621785 0.4564228295653838 0 0 0 -0.4693947389942998 15.103686137838993 0.21825776190544097 -1.9325525279039504 -6.765051818383298 -0.564826118647172 0 0 0 -0.8275773371672224 16.77140131657057 -5.6514542658714815 -3.8165761140058017 -5.751040864490355 -42.663333557866906 -41.76892497843922 -7.957160701612691 -50.46913507077155 0.8218610361482194 15.175522925310132 50.958304965483734 0 0 0 0 0 0 0 0 0 0 0 0 0 0 0 0 0 0 0 0 0 0 0 0 0 0 0 0 0 0 0 0 0 0 0 0 0 0 0 0 0 0 0 0 0 -0.0071199182939883825 -17.56383533074842 -0.05347143406765181 0 -0.9716810067381113 0 0 0 0 0 0 0 0 0 0 16.66208412041965 -11.400407978916723 20.132621063843082 11.148768571639186 -14.450327887207507 42.27020624676591 35.065575035310246 2.526788557088958 41.0588848122889 -27.17700765855295 -0.5297486420124126 -38.189336709197995 0 0 0 0 0 0 0 0 0 0 0 0 0 0 0 0 0 0 0 0 0 0 0 0 0 0 0 0 0 0 0 0 0 0 0 0 0 0 0 0 0 0 0 0 0
0.32175630402145705 -4.905472774925126 -0.44013084947713776 0 12.779379460527082 0 10.645608806411795 -19.096899641321993 1.3674156460237792 77.3633297645622 84.60453360961871 79.20630083944592 18.971434047106857 59.87402292988417 0.32862217670224 0 0 0 -9.865955472240028 -19.430943144415583 -3.1074037646271666 -78.15924361499401 84.68562496471445 -80.12275123022839 -16.654418797172895 61.31308319460835 0.650991650509915 0 0 0 -0.46991840990857814 15.103452677019238 0.21696702864338369 -1.9079260645379377 -5.152360242437832 -0.6436131679969013 0 0 0 -0.9066846736928024 16.142902761682226 -5.453725812106887 -3.8171484358168786 -5.774805809431938 -42.53261285984207 -41.76892497843922 -7.9571598395388685 -50.46913507077155 0.28226245862229116 15.110948312472978 51.0261812688117 0 0 0 0 0 0 0 0 0 0 0 0 0 0 0 0 0 0 0 0 0 0 0 0 0 0 0 0 0 0 0 0 0 0 0 0 0 0 0 0 0 0 0 0 0 -0.008887462505852558 -17.585520792034803 -0.06684252552830468 0 -1.1329960350101798 0 0 0 0 0 0 0 0 0 0 15.199309488645449 -11.154002504106087 20.142781095540936 12.44158632520205 -15.930453517647726 42.8678648841041 35.395453824041326 3.233633589264121 41.95779436128539 -27.582787846097933 -0.43749985244969997 -38.08846863423291 0 0 0 0 0 0 0 0 0 0 0 0 0 0 0 0 0 0 0 0 0 0 0 0 0 0 0 0 0 0 0 0 0 0 0 0 0 0 0 0 0 0 0 0 0
0.3420898366917411 -4.903188622500176 -0.41061575140160855 0 12.335150303307323 0 10.677707320569029 -18.27443340488999 1.3118780019873868 73.41557424682316 84.51380561794117 75.24720978181115 19.149490966037664 59.86311063469137 0.37859821815033734 0 0 0 -9.738588340657111 -18.66356247400778 -3.3747689318309178 -74.29230509343961 84.60384358537726 -76.24687888495376 -16.33038144091826 61.39278796814308 0.846998692229877 0 0 0 -0.4704327683750173 15.103219216456216 0.21567482022969822 -1.8855737733221762 -3.539636603163772 -0.7215374381744101 0 0 0 -0.9877968525323644 15.514669231970792 -5.255711135584957 -3.8177754645731516 -5.79856917679438 -42.4018823691438 -41.76892755030674 -7.9571598395388685 -50.469137730379074 -0.25725188176107333 15.046992755178163 51.09466366282522 0 0 0 0 0 0 0 0 0 0 0 0 0 0 0 0 0 0 0 0 0 0 0 0 0 0 0 0 0 0 0 0 0 0 0 0 0 0 0 0 0 0 0 0 0 -0.010649909791138725 -17.607208854945952 -0.08021450709047508 0 -1.2943109724900672 0 0 0 0 0 0 0 0 0 0 13.73780523940338 -10.907424091284518 20.146523841472618 13.728243749665863 -17.423187256435877 43.43503507358965 35.73666355270793 3.9352087467960613 42.8614616504691 -27.988402343640917 -0.34453920304963354 -37.98825541421256 0 0 0 0 0 0 0 0 0 0 0 0 0 0 0 0 0 0 0 0 0 0 0 0 0 0 0 0 0 0 0 0 0 0 0 0 0 0 0 0 0 0 0 0 0
0.3827566336400378 -4.898619780865734 -0.35158555525055 0 11.44604809844845 0 10.739124829983233 -16.625287491591262 1.2027177367721544 65.97743488548555 84.25819539257019 67.78638668825806 19.505392312062835 59.84104526636197 0.47830189821365665 0 0 0 -9.496172783183969 -17.12346015115058 -3.90196654344047 -66.97410210987631 84.37008528898556 -68.910798323352 -15.678014481631173 61.55059547738925 1.2434028875063934 0 0 0 -0.47147065357429957 15.102750527464599 0.21309094987255875 -1.8471644233137743 -0.28194446326078376 -0.8768309055145511 0 0 0 -1.156321658959058 14.256960038950442 -4.857987149105896 -3.8191929572601677 -5.846091194336788 -42.14038481118498 -41.76892755030674 -7.9571598395388685 -50.469137730379074 -1.3373031119904966 14.920817868364711 51.233581398194254 0 0 0 0 0 0 0 0 0 0 0 0 0 0 0 0 0 0 0 0 0 0 0 0 0 0 0 0 0 0 0 0 0 0 0 0 0 0 0 0 0 0 0 0 0 -0.01415955960032066 -17.650587426114843 -0.10696366387092768 0 -1.6171230260964657 0 0 0 0 0 0 0 0 0 0 10.79408247514473 -10.410285707763661 20.134610937451615 16.28944550781065 -20.443279367576928 44.477047880445916 36.454786849921156 5.324652571253482 44.68791787052674 -28.799665263534738 -0.15636514217085296 -37.78967747837804 0 0 0 0 0 0 0 0 0 0 0 0 0 0 0 0 0 0 0 0 0 0 0 0 0 0 0 0 0 0 0 0 0 0 0 0 0 0 0 0 0 0 0 0 0
